<svg width="236" height="169" viewBox="0 0 236 169" fill="none" xmlns="http://www.w3.org/2000/svg">
<path d="M146.428 144.21H89.1292C86.2591 144.21 83.5115 145.491 81.4803 147.768C79.4585 150.05 78.3132 153.136 78.3132 156.36C78.3132 159.579 79.4585 162.666 81.4803 164.948C83.5115 167.224 86.2591 168.505 89.1292 168.505H146.428C149.293 168.505 152.041 167.224 154.072 164.948C156.098 162.666 157.239 159.579 157.239 156.36C157.258 154.761 156.989 153.173 156.447 151.685C155.905 150.203 155.113 148.864 154.11 147.725C153.096 146.598 151.904 145.708 150.584 145.099C149.26 144.496 147.846 144.189 146.428 144.21Z" fill="#7DBD3B"/>
<path d="M117.821 0C182.886 0 235.641 18.0746 235.641 40.3634C235.641 70.9006 182.886 93.7188 117.821 93.7188C52.7554 93.7188 0 74.7495 0 40.3634C0 18.0746 52.7554 0 117.821 0Z" fill="#7DAA4D"/>
<path d="M117.821 93.7193C3.46389 93.7193 5.37258 63.1027 8.63386 84.3538C26.1703 127.115 68.4679 157.34 117.821 157.34C166.712 157.34 209.184 126.47 227.007 84.3538C226.824 72.4947 230.306 93.7193 117.821 93.7193Z" fill="#98CB64"/>
<path d="M209.637 52.5718C209.618 52.5507 209.599 52.5295 209.599 52.5083C209.595 52.4818 209.599 52.4501 209.609 52.4342C209.821 52.0689 209.948 51.6559 210.005 51.2377C210.089 50.7983 210.089 50.343 210.019 49.9035C209.943 49.4641 209.793 49.0406 209.576 48.67C209.359 48.2994 209.072 47.9764 208.737 47.7276C208.407 47.4735 208.039 47.3093 207.648 47.2193L193.119 43.8204C193.1 43.8099 193.095 43.8099 193.076 43.7993C193.067 43.794 193.057 43.7728 193.048 43.7622C193.048 43.7516 193.048 43.7304 193.048 43.7146C193.048 43.704 193.048 43.6828 193.057 43.6722L195.178 39.5797C195.56 38.7856 195.659 37.8538 195.437 36.9909C195.221 36.1226 194.716 35.3761 194.019 34.9367C193.321 34.4867 192.492 34.3596 191.714 34.582C190.937 34.8149 190.267 35.3761 189.857 36.1491L186.483 42.751C186.474 42.7722 186.464 42.7828 186.445 42.7934C186.431 42.8039 186.412 42.8039 186.393 42.8039C184.353 42.4492 182.34 41.9569 180.352 41.3321C180.333 41.3216 180.319 41.311 180.309 41.2951C180.29 41.2845 180.29 41.2633 180.29 41.2421C180.281 41.2157 180.29 41.1945 180.3 41.1839C180.309 41.168 180.323 41.1468 180.342 41.1468L182.27 40.3633C183.019 40.0668 183.641 39.4527 183.99 38.648C184.339 37.8432 184.39 36.922 184.145 36.0697C183.891 35.2279 183.354 34.5237 182.647 34.1108C181.93 33.7084 181.11 33.6343 180.352 33.899L172.458 37.0226C172.443 37.0226 172.434 37.0226 172.415 37.0226C172.406 37.0226 172.387 37.012 172.382 37.0014C171.133 36.0591 169.936 35.032 168.796 33.9255C168.786 33.9149 168.772 33.899 168.772 33.8778C168.763 33.8673 168.763 33.8461 168.772 33.8302C168.772 33.809 168.777 33.7878 168.786 33.7773C168.805 33.7667 168.815 33.7614 168.829 33.7508L171.802 32.9143C172.189 32.8084 172.557 32.6231 172.868 32.3584C173.193 32.0937 173.461 31.7601 173.664 31.3684C173.862 30.9872 173.994 30.5636 174.055 30.1242C174.107 29.6848 174.088 29.2348 173.985 28.8007C173.89 28.3718 173.725 27.9589 173.49 27.6095C173.254 27.2442 172.948 26.953 172.608 26.7147C172.269 26.4924 171.892 26.3441 171.501 26.2753C171.105 26.2171 170.704 26.2435 170.323 26.3547L163.126 28.3983C163.117 28.3983 163.103 28.3983 163.093 28.3983C163.074 28.3983 163.065 28.393 163.055 28.3824C162.989 28.3242 162.919 28.303 162.858 28.2448C162.848 28.2342 162.839 28.2236 162.829 28.213C162.82 28.2024 162.82 28.1971 162.82 28.1759L162.212 19.9857C162.132 19.0857 161.741 18.2492 161.123 17.6616C160.501 17.0739 159.7 16.7933 158.899 16.8515C158.098 16.9363 157.353 17.381 156.83 18.0745C156.307 18.7681 156.048 19.6734 156.109 20.5734L156.264 22.5323C156.264 22.5429 156.264 22.564 156.255 22.5799C156.245 22.6011 156.236 22.6223 156.222 22.6276C156.212 22.6382 156.194 22.6382 156.175 22.6382C156.161 22.6382 156.142 22.6382 156.132 22.6276C154.431 21.3834 152.673 20.2399 150.863 19.2022C150.849 19.1916 150.84 19.181 150.83 19.1704C150.821 19.1545 150.821 19.1334 150.821 19.1122C150.821 19.091 150.821 19.0857 150.83 19.0645C150.84 19.0434 150.859 19.0328 150.863 19.0222C151.292 18.8104 151.669 18.4875 151.957 18.0639C152.244 17.651 152.442 17.1745 152.532 16.6557C152.617 16.2109 152.617 15.7609 152.551 15.3215C152.47 14.8821 152.324 14.4585 152.103 14.0879C151.886 13.7173 151.599 13.3891 151.269 13.1456C150.934 12.8914 150.571 12.7273 150.175 12.6373L134.826 9.11136C134.434 9.01077 134.034 9.01076 133.643 9.09017C133.256 9.16959 132.884 9.3443 132.549 9.58784C132.21 9.83667 131.932 10.149 131.706 10.5196C131.489 10.8955 131.329 11.3032 131.253 11.7479V11.7638C131.253 11.7744 131.253 11.785 131.244 11.7955C131.244 11.8061 131.234 11.8167 131.225 11.822C131.216 11.8326 131.206 11.8326 131.201 11.8326C131.192 11.8432 131.183 11.8432 131.173 11.8432C129.594 11.5573 127.931 11.372 126.352 11.1867C126.333 11.1867 126.314 11.1761 126.31 11.1655C126.291 11.1602 126.281 11.1496 126.281 11.1285C126.272 11.1073 126.272 11.0967 126.272 11.0808C126.272 11.0596 126.281 11.0385 126.291 11.0332C126.621 10.5408 126.823 9.95313 126.885 9.33371C126.946 8.73016 126.856 8.10014 126.63 7.54425C126.291 6.72893 125.669 6.10422 124.919 5.78657C124.179 5.4848 123.35 5.51655 122.619 5.87656L109.72 12.6373L109.702 12.6479C108.212 13.0397 106.728 13.5268 105.281 14.0985C105.271 14.1091 105.253 14.1091 105.238 14.1091L94.3613 12.0497C93.5695 11.9226 92.7683 12.145 92.1227 12.685C91.477 13.2144 91.0482 14.0085 90.9162 14.898C90.7937 15.7821 90.9869 16.6927 91.4488 17.4286C91.9106 18.1539 92.6175 18.6516 93.4046 18.8104L94.5451 19.0434C94.5639 19.0539 94.5781 19.0645 94.5875 19.0751C94.6064 19.091 94.6064 19.1122 94.6158 19.1334C94.6158 19.1545 94.6158 19.1704 94.6064 19.1916C94.5969 19.2128 94.5781 19.2234 94.5639 19.2287C92.0331 20.6528 89.573 22.0823 87.1224 23.5117C86.4155 23.9405 85.6425 24.3958 84.8555 24.8247C84.8367 24.8353 84.8225 24.8458 84.8037 24.8353C84.7848 24.8353 84.7707 24.8247 84.7518 24.8035C84.7424 24.7929 84.733 24.777 84.733 24.7559C84.7236 24.7241 84.733 24.7082 84.7424 24.687L86.4249 21.4469C86.8255 20.6634 86.9386 19.721 86.7218 18.8369C86.5144 17.958 86.0007 17.201 85.2938 16.7404C84.5869 16.2904 83.748 16.1739 82.9657 16.4068C82.1786 16.6451 81.5094 17.2327 81.1041 18.0163L76.4384 27.0483C76.4243 27.0694 76.4054 27.0853 76.3866 27.0959C76.363 27.1065 76.3441 27.0959 76.3206 27.0853L65.1465 20.5734C64.4301 20.171 63.6054 20.1022 62.8466 20.3881C62.0878 20.6687 61.4563 21.2669 61.0934 22.0611C60.7258 22.8658 60.6551 23.787 60.8908 24.65C61.1264 25.5023 61.6495 26.2277 62.3565 26.6459L66.6828 29.1236C66.697 29.1342 66.7158 29.1448 66.7253 29.166C66.7347 29.1819 66.7347 29.2136 66.7347 29.2348C66.7253 29.2507 66.7158 29.2719 66.697 29.2824C66.6923 29.3036 66.664 29.3142 66.6451 29.3142C64.859 29.4095 63.0728 29.5948 61.2819 29.8701C61.2678 29.8701 61.249 29.8701 61.2301 29.8595C61.216 29.8489 61.2065 29.8383 61.1971 29.8225C60.8908 29.2136 60.4289 28.7318 59.8728 28.4301C59.3214 28.1177 58.6946 28.0065 58.0819 28.1177L42.6474 30.9554C41.851 31.1037 41.1393 31.596 40.6586 32.3266C40.1873 33.0625 39.9941 33.9731 40.1166 34.8785C40.2156 35.4661 40.4418 36.0114 40.7811 36.4614C41.1299 36.9115 41.5635 37.2556 42.0725 37.462C42.0819 37.4726 42.096 37.4832 42.1054 37.4938C42.1149 37.5044 42.1243 37.5203 42.1243 37.5415C42.1243 37.5626 42.1243 37.5679 42.1149 37.5891C42.1149 37.6103 42.1054 37.6209 42.0866 37.6315L34.6215 44.4769C34.2209 44.8475 33.9193 45.3293 33.7355 45.8693C33.5422 46.4093 33.4904 46.997 33.5611 47.5741C33.5611 47.5899 33.5611 47.6005 33.5517 47.6217C33.5517 47.6323 33.5422 47.6429 33.5328 47.6588C33.5234 47.6694 33.5092 47.6694 33.4998 47.68C33.481 47.68 33.4716 47.68 33.4527 47.68L25.3796 45.7528C24.5926 45.5622 23.7725 45.7423 23.1033 46.2399C22.4294 46.7429 21.9675 47.5158 21.8026 48.3947C21.6376 49.2788 21.7932 50.2 22.2409 50.9518C22.6839 51.7089 23.372 52.2277 24.159 52.413L26.2185 52.9107C26.2421 52.9107 26.2704 52.9212 26.2751 52.9424C26.2939 52.953 26.3033 52.9795 26.3033 53.0113C26.3033 53.0324 26.2939 53.0589 26.2751 53.0801C26.2704 53.096 26.2421 53.1066 26.2185 53.1066C25.6765 53.2336 25.1628 53.3342 24.5926 53.4983C18.4376 55.1554 12.9707 59.1314 9.82258 64.1874C9.81316 64.198 9.81316 64.2086 9.81316 64.2192C9.80373 64.2351 9.80373 64.2457 9.81316 64.2668C9.81316 64.288 9.8273 64.3145 9.84615 64.3251C13.2064 66.4692 117.464 133.06 223.757 68.1052C223.766 68.1052 223.771 68.0999 223.78 68.0999C219.525 62.4138 214.788 57.2149 209.637 52.5718Z" fill="white"/>
<path d="M83.9816 69.9473L96.89 79.9428C97.2294 80.1969 97.5168 80.5199 97.7336 80.9011C97.9598 81.2822 98.1201 81.7164 98.1908 82.1664C98.2662 82.6058 98.2662 83.0664 98.1813 83.5164C98.0918 83.9664 97.9363 84.39 97.7006 84.7605C97.4744 85.1417 97.1775 85.4594 96.8382 85.7029C96.4989 85.957 96.1124 86.1212 95.7118 86.2006C95.3112 86.28 94.9012 86.2694 94.5101 86.1741C94.1095 86.0735 93.7324 85.8882 93.4025 85.6235L80.4941 75.6333C80.1548 75.3739 79.8673 75.0456 79.6458 74.6697C79.4196 74.2885 79.2641 73.8597 79.1934 73.4097C79.118 72.965 79.118 72.4938 79.2028 72.0544C79.2923 71.6043 79.4479 71.1808 79.6835 70.8102C79.9097 70.429 80.2066 70.1167 80.5459 69.8625C80.8853 69.6137 81.2717 69.4496 81.6723 69.3702C82.0729 69.2908 82.4829 69.3014 82.8741 69.4019C83.2747 69.4972 83.6517 69.6825 83.9816 69.9473Z" fill="#D6D6D6"/>
<path d="M47.2688 74.5539L61.9163 68.3808C62.6751 68.0685 63.5234 68.1055 64.2539 68.4973C64.9985 68.8838 65.564 69.5773 65.8421 70.4403C66.1201 71.2927 66.0871 72.2403 65.7384 73.0662C65.3991 73.8974 64.7723 74.5327 64.0135 74.8504L49.3613 81.0182C48.9843 81.1876 48.5837 81.267 48.1737 81.2459C47.7731 81.2247 47.3725 81.1188 47.0049 80.9335C46.6373 80.7376 46.3168 80.4623 46.0482 80.1288C45.7749 79.7846 45.5675 79.3929 45.4355 78.964C45.1575 78.1011 45.1999 77.1587 45.5392 76.3381C45.888 75.5069 46.5101 74.8663 47.2688 74.5539Z" fill="white"/>
<path d="M172.678 65.834L187.066 72.8859C187.434 73.0659 187.773 73.32 188.051 73.643C188.329 73.9659 188.555 74.3577 188.706 74.7707C188.852 75.1889 188.923 75.6389 188.914 76.0942C188.904 76.5442 188.819 76.9942 188.659 77.4072C188.494 77.8254 188.268 78.196 187.971 78.5137C187.684 78.8261 187.344 79.0696 186.967 79.2284C186.595 79.3925 186.194 79.4719 185.794 79.4508C185.384 79.4402 184.988 79.3449 184.625 79.1596L170.232 72.1024C169.502 71.7318 168.927 71.0541 168.639 70.2123C168.352 69.3705 168.366 68.4387 168.691 67.6075C169.011 66.7869 169.615 66.1357 170.355 65.8075C171.104 65.474 171.933 65.4792 172.678 65.834Z" fill="white"/>
<path d="M117.821 80.7261C52.7601 80.7261 0 62.5986 0 40.3628C0 55.5573 2.94552 70.5665 8.6339 84.3527C32.4431 99.3407 72.4692 109.135 117.821 109.135C163.172 109.135 203.198 99.3407 227.008 84.3527C232.696 70.5665 235.641 55.5573 235.641 40.3628C235.641 62.5986 182.881 80.7261 117.821 80.7261Z" fill="#407D00"/>
<path d="M91.2224 43.2022L105.436 35.7585C105.794 35.5626 106.186 35.4567 106.591 35.4355C106.992 35.409 107.392 35.4726 107.764 35.6314C108.141 35.7902 108.49 36.0232 108.787 36.3249C109.084 36.632 109.32 36.992 109.485 37.405C109.65 37.8179 109.744 38.2573 109.763 38.7074C109.772 39.1574 109.711 39.6021 109.569 40.0203C109.423 40.4439 109.216 40.8356 108.933 41.1586C108.665 41.4815 108.335 41.7462 107.967 41.9315L93.7532 49.3753C93.395 49.5711 93.0039 49.6823 92.5986 49.6982C92.2074 49.7194 91.8068 49.6506 91.4298 49.4917C91.0575 49.3382 90.7181 49.1 90.4307 48.7876C90.1337 48.4858 89.9075 48.1205 89.7379 47.7129C89.5588 47.3105 89.4504 46.8711 89.4362 46.4158C89.408 45.9658 89.4692 45.5158 89.6106 45.0975C89.7473 44.674 89.9594 44.2822 90.2374 43.9593C90.5155 43.6363 90.8454 43.3822 91.2224 43.2022Z" fill="white"/>
<path d="M63.9257 19.7898L77.7908 27.9218C78.4977 28.3401 79.0208 29.0654 79.2565 29.9177C79.4921 30.7701 79.4214 31.7019 79.0585 32.496C78.6909 33.3008 78.0641 33.899 77.3054 34.1796C76.5466 34.4549 75.7172 34.3967 75.0008 33.9943L61.1357 25.8623C60.4193 25.4441 59.8773 24.7241 59.637 23.8664C59.3919 23.0035 59.4626 22.0611 59.8255 21.2564C60.2119 20.4675 60.8576 19.8746 61.6164 19.6046C62.3751 19.3293 63.1999 19.3981 63.9257 19.7898Z" fill="white"/>
<path d="M146.602 33.3067L160.552 41.3434C161.259 41.7616 161.782 42.4869 162.018 43.3393C162.253 44.1917 162.183 45.1235 161.82 45.9176C161.452 46.7223 160.825 47.3206 160.067 47.6012C159.308 47.8765 158.478 47.8182 157.762 47.4159L143.807 39.3845C143.096 38.961 142.554 38.2462 142.309 37.3833C142.064 36.5203 142.134 35.5832 142.502 34.7785C142.676 34.3655 142.931 34.0161 143.223 33.7091C143.529 33.4179 143.888 33.1902 144.274 33.0526C144.656 32.9149 145.056 32.8673 145.457 32.9149C145.858 32.9573 146.244 33.0949 146.602 33.3067Z" fill="white"/>
<path d="M140.41 62.5032L155.759 59.0725C156.151 58.9878 156.551 58.9772 156.933 59.0619C157.329 59.1519 157.701 59.3213 158.036 59.5648C158.366 59.8084 158.653 60.1207 158.87 60.4966C159.096 60.8672 159.256 61.2802 159.332 61.7196C159.412 62.159 159.412 62.609 159.341 63.0432C159.261 63.4826 159.115 63.9061 158.898 64.2767C158.681 64.6473 158.389 64.9703 158.069 65.2191C157.739 65.4732 157.371 65.6479 156.98 65.7379L141.63 69.1633C141.239 69.2639 140.834 69.2639 140.443 69.1845C140.052 69.0945 139.675 68.9304 139.345 68.6868C139.015 68.438 138.727 68.1151 138.506 67.7445C138.28 67.3739 138.133 66.9609 138.053 66.5215C137.898 65.6374 138.053 64.7162 138.496 63.9644C138.935 63.2179 139.623 62.6885 140.41 62.5032Z" fill="white"/>
<path d="M105.087 58.7813L120.262 62.9902C120.653 63.0908 121.03 63.2761 121.351 63.5408C121.685 63.7949 121.963 64.1284 122.171 64.5096C122.392 64.9014 122.529 65.325 122.599 65.775C122.661 66.2144 122.651 66.675 122.557 67.1197C122.468 67.5591 122.293 67.9721 122.058 68.3321C121.822 68.7027 121.525 69.0098 121.186 69.2533C120.837 69.4862 120.465 69.6451 120.064 69.7139C119.659 69.7827 119.258 69.7615 118.867 69.6556L103.692 65.4414C102.919 65.2191 102.245 64.6579 101.825 63.8955C101.401 63.1278 101.26 62.2066 101.425 61.3278C101.495 60.8778 101.651 60.4542 101.887 60.073C102.113 59.7024 102.41 59.3795 102.749 59.1413C103.098 58.8977 103.484 58.7495 103.885 58.6807C104.285 58.6224 104.695 58.6542 105.087 58.7813Z" fill="white"/>
<path d="M91.9177 28.8017L106.57 22.6286C107.329 22.3163 108.172 22.3586 108.907 22.7504C109.647 23.1316 110.213 23.8251 110.496 24.6881C110.774 25.5405 110.736 26.4934 110.387 27.314C110.048 28.1452 109.421 28.7858 108.662 29.0982L94.0102 35.2713C93.6378 35.4354 93.2325 35.5148 92.8272 35.4936C92.4219 35.4725 92.0213 35.3666 91.6584 35.1813C91.2908 34.9854 90.9657 34.7101 90.697 34.3766C90.4284 34.0324 90.2163 33.6407 90.0844 33.2118C89.8063 32.3489 89.8534 31.4118 90.1928 30.5859C90.5321 29.7547 91.1589 29.1141 91.9177 28.8017Z" fill="white"/>
<path d="M170.232 50.9405L185.322 46.1439C185.704 46.0169 186.105 45.9851 186.501 46.0328C186.901 46.0857 187.283 46.2286 187.632 46.4457C187.98 46.6628 188.287 46.954 188.532 47.3087C188.777 47.6581 188.956 48.0604 189.069 48.4946C189.177 48.9234 189.21 49.3734 189.168 49.8181C189.126 50.2681 188.994 50.697 188.8 51.0888C188.607 51.4805 188.348 51.8247 188.032 52.1C187.721 52.3753 187.363 52.5764 186.977 52.7035L171.891 57.5054C171.113 57.7436 170.284 57.6325 169.586 57.193C168.884 56.7536 168.366 56.0177 168.139 55.1547C167.951 54.2812 168.055 53.36 168.446 52.5764C168.837 51.8035 169.473 51.2158 170.232 50.9405Z" fill="white"/>
<path d="M59.5662 40.5588L46.4834 50.2579C46.1535 50.5014 45.7765 50.6709 45.3853 50.7556C44.9989 50.8456 44.5983 50.835 44.2071 50.745C43.8159 50.6603 43.4483 50.4803 43.1184 50.2261C42.7838 49.972 42.5058 49.6596 42.289 49.2785C42.0722 48.9026 41.9214 48.4949 41.846 48.0502C41.7753 47.6108 41.7753 47.1608 41.8601 46.7213C41.9402 46.2872 42.0958 45.869 42.322 45.5037C42.5482 45.1331 42.8404 44.8207 43.1703 44.5772L56.2531 34.8781C56.583 34.6187 56.9506 34.4546 57.3418 34.3646C57.7329 34.2798 58.1335 34.2798 58.5294 34.3646C58.9206 34.4651 59.2882 34.6399 59.6181 34.894C59.9385 35.1481 60.2213 35.4711 60.4381 35.8575C60.6643 36.2281 60.8293 36.6411 60.9094 37.0805C60.9942 37.5199 60.9942 37.9805 60.9094 38.42C60.8293 38.8647 60.6643 39.2723 60.4381 39.6482C60.2024 40.0082 59.9055 40.3206 59.5662 40.5588Z" fill="white"/>
<path d="M121.398 42.6131L136.748 45.9485C137.149 46.0226 137.521 46.192 137.87 46.4355C138.209 46.6791 138.506 47.002 138.732 47.3779C138.968 47.7485 139.128 48.1721 139.213 48.6221C139.302 49.0615 139.302 49.5221 139.232 49.9721C139.152 50.4115 138.996 50.8456 138.779 51.2268C138.553 51.608 138.266 51.931 137.931 52.1851C137.592 52.4392 137.215 52.6192 136.814 52.7039C136.413 52.7939 136.013 52.7939 135.612 52.7039L120.263 49.3738C119.862 49.2944 119.48 49.1303 119.136 48.8868C118.797 48.6432 118.5 48.315 118.274 47.9444C118.038 47.5738 117.883 47.1503 117.793 46.7003C117.708 46.2608 117.708 45.8002 117.779 45.3502C117.854 44.9002 118.015 44.4767 118.231 44.0955C118.458 43.7143 118.745 43.3913 119.075 43.1372C119.419 42.8778 119.791 42.7031 120.192 42.6131C120.588 42.5284 120.998 42.5284 121.398 42.6131Z" fill="#D6D6D6"/>
<path d="M141.54 17.4399L156.89 20.77C157.677 20.9447 158.374 21.4635 158.827 22.2206C159.27 22.9724 159.444 23.883 159.289 24.7778C159.143 25.6672 158.685 26.4507 158.026 26.9696C157.361 27.4778 156.55 27.6843 155.759 27.5307L140.409 24.2007C139.613 24.0207 138.924 23.4912 138.472 22.75C138.029 21.993 137.855 21.0824 138.001 20.1929C138.156 19.2982 138.613 18.5147 139.273 17.9958C139.928 17.4876 140.748 17.2811 141.54 17.4399Z" fill="#D6D6D6"/>
<path d="M193.085 58.7824L207.299 51.3334C207.657 51.1375 208.049 51.0316 208.449 51.0104C208.85 50.984 209.25 51.0528 209.627 51.2063C210.004 51.3651 210.353 51.5981 210.65 51.9052C210.942 52.2069 211.178 52.5722 211.348 52.9799C211.512 53.3928 211.607 53.8323 211.626 54.2823C211.635 54.7376 211.574 55.177 211.432 55.5952C211.286 56.0188 211.074 56.4106 210.796 56.7335C210.528 57.0565 210.193 57.3212 209.83 57.5065L195.611 64.9555C195.253 65.1514 194.862 65.2573 194.461 65.2784C194.07 65.2943 193.67 65.2255 193.293 65.0719C192.916 64.9131 192.576 64.6802 192.289 64.3678C191.992 64.0608 191.766 63.7007 191.601 63.2878C191.28 62.4672 191.252 61.5354 191.521 60.6936C191.803 59.8465 192.36 59.1636 193.085 58.7824Z" fill="#D6D6D6"/>
<path d="M67.1533 49.1776L82.503 52.5077C83.2854 52.6877 83.9829 53.2065 84.4353 53.9583C84.883 54.7154 85.0574 55.626 84.8972 56.5154C84.7511 57.4101 84.2986 58.1937 83.6341 58.7125C82.9696 59.2208 82.159 59.4273 81.3672 59.2684L66.0175 55.9383C65.2258 55.753 64.5377 55.2342 64.0712 54.4771C63.6187 53.7359 63.4443 52.8147 63.5763 51.92C63.647 51.47 63.7837 51.0412 64.0052 50.66C64.222 50.2788 64.5094 49.9505 64.8393 49.6911C65.174 49.4317 65.5557 49.257 65.9469 49.167C66.3474 49.0823 66.7575 49.0823 67.1533 49.1776Z" fill="#D6D6D6"/>
<path d="M33.9231 50.7454L47.5291 59.5656C48.236 60.0156 48.7497 60.7674 48.9618 61.6515C49.1786 62.5304 49.0654 63.4727 48.6649 64.2669C48.2643 65.061 47.5903 65.6381 46.808 65.871C46.021 66.1199 45.1821 65.9928 44.4751 65.5428L30.8739 56.7226C30.167 56.2726 29.6533 55.5208 29.4412 54.6366C29.2244 53.7525 29.3375 52.8154 29.7381 52.0213C30.1387 51.2271 30.8127 50.6501 31.595 50.4118C32.382 50.1683 33.2162 50.2953 33.9231 50.7454Z" fill="#D6D6D6"/>
<path d="M127.765 32.9144L116.685 20.4729C116.129 19.8376 115.813 18.9747 115.822 18.0852C115.822 17.1852 116.148 16.3328 116.704 15.6922C117.269 15.0675 118.028 14.7022 118.834 14.7022C119.626 14.6969 120.394 15.0463 120.959 15.6763L132.035 28.1178C132.322 28.4302 132.558 28.8008 132.718 29.2137C132.873 29.6267 132.954 30.0661 132.954 30.5161C132.954 30.9661 132.873 31.4108 132.718 31.8185C132.558 32.2315 132.322 32.6021 132.035 32.9144C131.46 33.5338 130.691 33.8674 129.9 33.8674C129.108 33.8674 128.34 33.5338 127.765 32.9144Z" fill="#D6D6D6"/>
</svg>
