<?xml version="1.0" encoding="UTF-8" standalone="no"?>
<!-- Created with Inkscape (http://www.inkscape.org/) -->

<svg
   version="1.1"
   id="svg2"
   width="824.10669"
   height="487.70667"
   viewBox="0 0 824.10669 487.70667"
   sodipodi:docname="Kind_rice_logotype.eps"
   xmlns:inkscape="http://www.inkscape.org/namespaces/inkscape"
   xmlns:sodipodi="http://sodipodi.sourceforge.net/DTD/sodipodi-0.dtd"
   xmlns="http://www.w3.org/2000/svg"
   xmlns:svg="http://www.w3.org/2000/svg">
  <defs
     id="defs6" />
  <sodipodi:namedview
     id="namedview4"
     pagecolor="#ffffff"
     bordercolor="#000000"
     borderopacity="0.25"
     inkscape:showpageshadow="2"
     inkscape:pageopacity="0.0"
     inkscape:pagecheckerboard="0"
     inkscape:deskcolor="#d1d1d1" />
  <g
     id="g8"
     inkscape:groupmode="layer"
     inkscape:label="ink_ext_XXXXXX"
     transform="matrix(1.3333333,0,0,-1.3333333,0,487.70667)">
    <g
       id="g10"
       transform="scale(0.1)">
      <path
         d="m 2226.67,527.48 c 0,124.379 -73.98,154.418 -220.89,154.418 H 1893.2 V 376.309 h 112.58 c 146.91,0 220.89,26.781 220.89,151.171 z m 94.34,-449.2612 c 28.96,-42.8477 19.31,-65.4102 -34.31,-65.4102 h -23.59 c -28.93,0 -48.25,11.8125 -64.32,35.4219 l -148,225.0585 c -14.12,-0.641 -28.75,-0.961 -43.91,-0.961 H 1894.31 V 66.4609 c 0,-34.3125 -19.32,-53.6015 -53.63,-53.6015 h -18.21 c -34.31,0 -53.63,19.289 -53.63,53.6015 V 735.5 c 0,34.309 19.32,53.602 53.63,53.602 h 186.55 c 241.26,0 343.11,-69.684 343.11,-256.25 0,-129.852 -57.28,-207.43 -175.8,-240.911 L 2321.01,78.2188"
         style="fill:#1e6330;fill-opacity:1;fill-rule:nonzero;stroke:none"
         id="path12" />
      <path
         d="M 2542.81,66.4609 V 735.539 c 0,34.32 19.32,53.609 53.63,53.609 h 17.15 c 34.31,0 53.61,-19.289 53.61,-53.609 V 66.4609 c 0,-34.3125 -19.3,-53.6015 -53.61,-53.6015 h -17.15 c -34.31,0 -53.63,19.289 -53.63,53.6015"
         style="fill:#1e6330;fill-opacity:1;fill-rule:nonzero;stroke:none"
         id="path14" />
      <path
         d="m 2834.05,398.871 c 0,275.539 180.14,399.918 365.63,399.918 126.52,0 264.84,-55.758 325.96,-210.129 13.94,-35.422 -4.3,-60.082 -39.69,-66.512 l -17.15,-3.218 c -33.24,-6.43 -49.31,7.531 -65.39,38.629 -43.98,83.601 -113.66,126.5 -203.73,126.5 -142.61,0 -238.04,-109.368 -238.04,-285.188 0,-176.93 93.29,-283.082 238.04,-283.082 92.21,0 162.97,43.961 205.87,131.871 14.99,31.102 33.23,45.059 65.4,38.629 l 17.16,-3.219 c 35.37,-6.429 51.47,-37.519 32.15,-83.64 C 3458.09,53.6016 3322.99,0 3199.68,0 3014.19,0 2834.05,115.789 2834.05,398.871"
         style="fill:#1e6330;fill-opacity:1;fill-rule:nonzero;stroke:none"
         id="path16" />
      <path
         d="M 3697.18,66.4609 V 735.539 c 0,34.32 19.32,53.609 53.63,53.609 h 398.84 c 34.31,0 53.63,-19.289 53.63,-53.609 v -5.367 c 0,-34.313 -19.32,-53.602 -53.63,-53.602 H 3821.56 V 459.961 h 308.8 c 34.31,0 53.6,-19.301 53.6,-53.609 v -1.051 c 0,-34.313 -19.29,-52.551 -53.6,-52.551 h -308.8 V 125.441 h 328.09 c 34.31,0 53.63,-19.293 53.63,-53.6129 v -5.3672 c 0,-34.3125 -19.32,-53.6015 -53.63,-53.6015 h -398.84 c -34.31,0 -53.63,19.289 -53.63,53.6015"
         style="fill:#1e6330;fill-opacity:1;fill-rule:nonzero;stroke:none"
         id="path18" />
      <path
         d="m 5104.06,1908.94 c 0,-118.96 -30.14,-214.79 -90.37,-287.56 -60.27,-72.77 -139.67,-109.16 -238.27,-109.16 -89.2,0 -159.27,31.7 -210.1,95.07 -50.86,63.39 -76.3,150.61 -76.3,261.75 0,79.81 14.87,150.59 44.6,212.44 29.71,61.81 70.43,110.69 122.09,146.72 51.63,35.99 111.1,53.98 178.4,53.98 51.64,0 101.7,-12.9 150.23,-38.72 48.49,-25.82 88.4,-59.86 119.72,-102.12 z m -4190.138,16.44 c -64.192,-21.95 -136.969,-32.87 -218.32,-32.87 -34.43,0 -64.957,1.54 -91.536,4.69 26.579,120.5 70.786,217.51 132.629,291.09 61.785,73.54 134.172,110.34 217.129,110.34 50.066,0 90.396,-14.49 120.896,-43.44 30.51,-28.96 45.79,-66.9 45.79,-113.85 0,-46.95 -18.42,-89.2 -55.19,-126.76 -36.77,-37.55 -87.25,-67.31 -151.398,-89.2 z m -342.719,335.69 v 913.16 c 0,192.5 57.106,288.73 171.356,288.73 54.754,0 96.601,-23.11 125.589,-69.25 28.942,-46.17 43.43,-113.07 43.43,-200.71 0,-140.85 -28.984,-290.72 -86.863,-449.54 C 766.809,2584.61 682.281,2423.81 571.203,2261.07 Z M 5677.91,1532.44 c -18.89,17.33 -43.68,30.2 -70.08,29.02 -27.71,-1.25 -54.68,-13.77 -78.08,-27.91 -21.16,-12.8 -43.19,-21.33 -68.88,-21.33 -46.94,0 -82.56,17.61 -106.8,52.82 -24.28,35.21 -36.39,98.18 -36.39,188.96 v 1561.07 c -34.45,10.93 -69.65,16.43 -105.63,16.43 -42.26,0 -78.26,-5.5 -107.99,-16.43 v -928.75 c -55.37,33.79 -80.62,44.93 -133.79,66.05 -53.23,21.13 -107.23,31.71 -161.99,31.71 -103.28,0 -195.23,-26.64 -275.82,-79.83 -80.62,-53.21 -144.37,-125.99 -191.31,-218.32 -5.2,-10.22 -10.1,-20.59 -14.71,-31.1 -26.5,-60.46 -42.78,-125.02 -50.38,-190.52 -10.29,-88.74 0.02,-168.43 -43.26,-249.94 -23.72,-44.7 -52.38,-87.11 -87.67,-123.51 -50.87,-52.45 -102.92,-78.64 -156.12,-78.64 -46.94,0.01 -82.54,17.61 -106.78,52.82 -24.28,35.21 -36.39,98.18 -36.39,188.97 v 274.65 c 0,143.97 -33.26,255.88 -99.77,335.68 -66.53,79.82 -160.79,119.74 -282.85,119.74 -84.53,0 -161.21,-19.96 -230.07,-59.87 -68.87,-39.91 -125.21,-96.65 -169.02,-170.19 -18.77,70.42 -52.44,126.35 -100.93,167.84 -48.52,41.45 -107.99,62.22 -178.4,62.22 -184.69,0 -309.87,-122.08 -375.61,-366.22 l -70.42,-274.65 c -29.74,-118.95 -64.56,-203.86 -104.47,-254.7 -39.9,-50.86 -84.9,-76.28 -134.95,-76.29 -61.03,0.01 -104.45,23.08 -130.27,69.25 -25.83,46.14 -38.74,110.7 -38.74,193.67 v 676.06 c -34.43,10.93 -69.65,16.44 -105.63,16.44 -20.35,0 -39.91,-1.57 -58.68,-4.7 -18.78,-3.15 -35.22,-7.04 -49.29,-11.74 v -422.54 c -4.71,-70.42 -16.08,-140.07 -34.05,-208.92 -18,-68.89 -46.59,-129.92 -85.68,-183.11 -32.86,-42.25 -68.08,-73.57 -105.63,-93.89 -37.56,-20.35 -72.75,-30.51 -105.62,-30.52 -75.13,0 -146.35,38.33 -213.62,115.03 l -77.46,89.2 c -26.64,29.71 -55.57,55.54 -86.85,77.46 97.02,31.29 174.46,78.24 232.39,140.85 57.87,62.57 86.85,134.58 86.85,215.98 0,100.12 -30.51,180.75 -91.54,241.77 -61.05,61.04 -142.44,91.57 -244.135,91.57 -20.372,0 -40.727,-1.58 -61.051,-4.7 61.051,120.5 106.406,240.61 136.166,360.33 29.7,119.73 44.6,236.69 44.6,350.94 0,137.7 -31.7,249.61 -95.08,335.71 -63.385,86.03 -151.409,129.87 -264.085,131.44 -123.636,1.55 -218.312,-39.9 -284.039,-124.41 -65.722,-84.51 -98.586,-205.04 -98.586,-361.51 0,0 0,-1065.72 0,-1065.75 0,-4.57 -18.91,-18.49 -22.531,-21.91 -8.668,-8.19 -17.465,-16.24 -26.394,-24.14 -17.782,-15.74 -36.079,-30.9 -54.856,-45.44 -48.379,-37.45 -103.07,-79.89 -160.457,-101.17 -10.4609,-3.88 -21.0547,-7.3 -31.7265,-10.54 -49.5313,-15.09 -86.0078,-70.03 -69.20706,-121.9 9.44536,-29.17 31.78126,-54.23 60.32426,-65.82 25.8203,-10.48 69.6833,-6.94 96.7073,-3.31 20.07,2.71 39.593,12.18 57.726,20.72 23.364,11.01 47.766,22.93 69.778,36.42 12.98,7.97 25.484,16.71 37.691,25.79 6.43,4.79 42.945,27.2 42.945,34.3 0,-0.03 0,-485.93 0,-485.93 34.399,-10.92 68.828,-16.43 103.278,-16.43 17.199,0 35.215,1.58 53.984,4.69 18.789,3.16 35.988,7.05 51.652,11.74 v 307.53 c 0,25.01 0.766,50.05 2.352,75.11 68.832,0 124.781,-4.33 167.836,-12.91 43.016,-8.62 80.984,-24.28 113.863,-46.95 32.86,-22.7 68.059,-54.4 105.637,-95.07 l 98.588,-105.65 c 46.95,-48.51 95.83,-86.47 146.71,-113.84 50.85,-27.37 102.13,-41.08 153.76,-41.08 0.53,0 0.96,0.11 1.48,0.11 0.3,0 0.55,-0.11 0.85,-0.11 64.14,0 124.01,12.54 179.58,37.55 55.52,25.02 104.46,58.69 146.71,100.95 25.01,25.01 48.49,55.53 70.43,91.55 48.49,-153.37 154.1,-230.02 316.93,-230.05 115.76,0.01 209.65,35.59 281.64,106.81 71.95,71.19 128.3,184.27 169.02,339.2 l 86.85,338.04 c 17.2,65.73 37.55,113.45 61.03,143.19 23.48,29.72 51.65,44.61 84.51,44.61 71.96,0 107.99,-63.39 107.99,-190.14 v -748.84 c 32.86,-10.93 68.06,-16.44 105.63,-16.44 17.2,0 35.2,1.58 53.99,4.69 18.78,3.16 35.98,7.05 51.65,11.75 v 291.08 c 0,128.3 14.44,240.98 43.43,338.03 28.92,97.02 69.6,172.91 122.06,227.7 52.4,54.77 113.04,82.17 181.93,82.17 132.99,0 199.54,-84.51 199.54,-253.53 v -300.47 c 0,-148.7 32.87,-255.51 98.59,-320.43 65.71,-64.91 146.26,-97.4 241.76,-97.42 158.07,0 285.59,75.12 382.65,225.35 43.79,-70.43 100.53,-125.59 170.18,-165.49 69.62,-39.91 149.84,-59.86 240.61,-59.86 78.25,0 149.83,16.43 214.8,49.3 64.93,32.86 120.1,78.23 165.51,136.15 28.16,-64.19 68.84,-111.14 122.06,-140.85 53.18,-29.72 111.86,-44.6 176.05,-44.6 0,0 2.35,0 2.36,0 16.5,0 33.01,1.15 49.34,3.59 62.45,9.29 137.01,31.25 181.77,78.37 17.78,18.71 29.02,43.99 29.02,70.06 0,24.3 -10.8,53.34 -29.02,70.08"
         style="fill:#1e6330;fill-opacity:1;fill-rule:nonzero;stroke:none"
         id="path20" />
      <path
         d="m 2000.17,3318.55 c -74.96,-0.15 -135.16,-44.28 -171.72,-105.29 -34.59,57.9 -90.7,101.41 -161.08,105.09 -78.74,4.11 -129.65,-56.74 -134.34,-131.36 -7.99,-126.78 103.19,-237.09 193.3,-310.75 28.59,-23.36 58.22,-46.13 89.52,-65.8 7.27,-4.57 17.8,-4.57 25.07,0 54.91,34.52 106.58,76.78 152.59,122.33 69.75,69.05 142.39,163.89 128.78,268.19 -8.64,66.22 -54.17,114.37 -122.12,117.59"
         style="fill:#1e6330;fill-opacity:1;fill-rule:nonzero;stroke:none"
         id="path22" />
      <path
         d="m 5941.69,3406.47 c 57.13,0 72.37,14.91 72.37,45.4 0,31.99 -11.32,47.44 -71.77,47.44 h -35.95 v -92.84 h 35.34 z m -57.58,-113.32 c -14.41,0 -21.44,6.86 -21.44,22.96 v 201.05 c 0,14.56 8.13,22.69 22.68,22.69 h 55.89 c 80.45,0 116.51,-24.98 116.51,-86.24 0,-46.38 -25.34,-73.06 -72.81,-82.35 l 55.08,-57.5 c 9.97,-10.96 4.36,-20.59 -10.02,-20.59 h -9.94 c -11.54,0 -17.27,4.81 -24.95,12.89 l -57.65,60.58 h -30.93 v -50.52 c 0,-18.67 -10.37,-22.96 -22.41,-22.96 z m 67.45,-78.03 c 111.53,0 183.04,72.94 183.04,199.14 0,123.21 -72.47,198.47 -182.07,198.47 -111.62,0 -183.74,-74.6 -183.74,-198.47 0,-126.2 70.51,-199.14 182.78,-199.14 z m -227.86,199.14 c 0,168.65 111.47,242.52 229.18,242.52 115.74,0 227.87,-73.87 227.87,-242.52 0,-171.92 -111.47,-243.17 -229.18,-243.17 -117.7,0 -227.87,71.25 -227.87,243.17"
         style="fill:#1e6330;fill-opacity:1;fill-rule:nonzero;stroke:none"
         id="path24" />
    </g>
  </g>
</svg>
